<svg width="256" height="256" viewBox="0 0 256 256" fill="none" xmlns="http://www.w3.org/2000/svg">
    <rect width="256" height="256" rx="48" fill="white"/>
    
    <g>
        <path d="M 128,140 L 28.00,140.00 A 100,100 0 0 1 35.61,101.73 Z" fill="#EF4444"/>
        <path d="M 128,140 L 35.61,101.73 A 100,100 0 0 1 57.29,72.29 Z" fill="#F97316"/>
        <path d="M 128,140 L 57.29,72.29 A 100,100 0 0 1 89.73,55.61 Z" fill="#FBBF24"/>
        <path d="M 128,140 L 89.73,55.61 A 100,100 0 0 1 128.00,40.00 Z" fill="#22C55E"/>
        <path d="M 128,140 L 128.00,40.00 A 100,100 0 0 1 166.27,55.61 Z" fill="#06B6D4"/>
        <path d="M 128,140 L 166.27,55.61 A 100,100 0 0 1 198.71,72.29 Z" fill="#3B82F6"/>
        <path d="M 128,140 L 198.71,72.29 A 100,100 0 0 1 220.39,101.73 Z" fill="#6366F1"/>
        <path d="M 128,140 L 220.39,101.73 A 100,100 0 0 1 228.00,140.00 Z" fill="#8B5CF6"/>
    </g>
    
    <text x="50%" y="72%" dominant-baseline="middle" text-anchor="end"
          font-family="system-ui, -apple-system, BlinkMacSystemFont, 'Segoe UI', Roboto, Helvetica, Arial, sans-serif" 
          font-size="112" font-weight="bold"
          fill="#3B82F6" dx="-6">
        K
    </text>
    <text x="50%" y="72%" dominant-baseline="middle" text-anchor="start"
          font-family="system-ui, -apple-system, BlinkMacSystemFont, 'Segoe UI', Roboto, Helvetica, Arial, sans-serif" 
          font-size="112" font-weight="bold"
          fill="#FBBF24" dx="6">
        E
    </text>
</svg>